# Blender 3.4.1
# www.blender.org
mtllib BoxBlack.mtl
o SScream
v -1.436491 3.604429 -13.964235
v -1.436491 3.104429 -13.964235
v -1.436501 3.604429 -13.364235
v -1.436501 3.104429 -13.364235
vn -1.0000 -0.0000 -0.0000
vt 0.000000 0.000000
vt 1.000000 0.000000
vt 0.000000 1.000000
vt 1.000000 1.000000
s 0
usemtl 材质.009
f 2/2/1 3/3/1 1/1/1
f 2/2/1 4/4/1 3/3/1
o SScream.001
v -1.436504 3.604429 -13.158600
v -1.436504 3.104429 -13.158600
v -1.436515 3.604429 -12.558599
v -1.436515 3.104429 -12.558599
vn -1.0000 -0.0000 -0.0000
vt 0.000000 0.000000
vt 1.000000 0.000000
vt 0.000000 1.000000
vt 1.000000 1.000000
s 0
usemtl 材质.010
f 6/6/2 7/7/2 5/5/2
f 6/6/2 8/8/2 7/7/2
o SScream.002
v -1.436521 3.604429 -12.179806
v -1.436521 3.104429 -12.179806
v -1.436531 3.604429 -11.579805
v -1.436531 3.104429 -11.579805
vn -1.0000 -0.0000 -0.0000
vt 0.000000 0.000000
vt 1.000000 0.000000
vt 0.000000 1.000000
vt 1.000000 1.000000
s 0
usemtl 材质.011
f 10/10/3 11/11/3 9/9/3
f 10/10/3 12/12/3 11/11/3
