# Blender 3.4.1
# www.blender.org
mtllib BoxFace.mtl
o Door1
v -1.426490 4.500000 -14.043493
v -1.426489 0.500000 -14.043493
v -1.426517 4.500000 -12.443493
v -1.426517 0.500000 -12.443493
vn -1.0000 -0.0000 -0.0000
vt 0.000000 0.000000
vt 1.000000 0.000000
vt 0.000000 1.000000
vt 1.000000 1.000000
s 0
usemtl 材质.001
f 2/2/1 3/3/1 1/1/1
f 2/2/1 4/4/1 3/3/1
o Door2
v -1.426518 4.500000 -12.343493
v -1.426518 0.500000 -12.343493
v -1.426546 4.500000 -10.743492
v -1.426545 0.500000 -10.743492
vn -1.0000 -0.0000 -0.0000
vt 0.000000 0.000000
vt 1.000000 0.000000
vt 0.000000 1.000000
vt 1.000000 1.000000
s 0
usemtl 材质
f 6/6/2 7/7/2 5/5/2
f 6/6/2 8/8/2 7/7/2
