# Blender 3.4.1
# www.blender.org
mtllib BoxSign.mtl
o signallight
v -1.436491 4.282850 -13.953606
v -1.436491 4.032850 -13.953606
v -1.436495 4.282850 -13.703606
v -1.436495 4.032850 -13.703606
vn -1.0000 -0.0000 -0.0000
vt 0.000000 0.000000
vt 1.000000 0.000000
vt 0.000000 1.000000
vt 1.000000 1.000000
s 0
usemtl 材质.002
f 2/2/1 3/3/1 1/1/1
f 2/2/1 4/4/1 3/3/1
o signallight.001
v -1.436498 4.282850 -13.553605
v -1.436498 4.032850 -13.553605
v -1.436502 4.282850 -13.303605
v -1.436502 4.032850 -13.303605
vn -1.0000 -0.0000 -0.0000
vt 0.000000 0.000000
vt 1.000000 0.000000
vt 0.000000 1.000000
vt 1.000000 1.000000
s 0
usemtl 材质.003
f 6/6/2 7/7/2 5/5/2
f 6/6/2 8/8/2 7/7/2
o signallight.002
v -1.436504 4.282850 -13.153605
v -1.436504 4.032850 -13.153605
v -1.436509 4.282850 -12.903605
v -1.436509 4.032850 -12.903605
vn -1.0000 -0.0000 -0.0000
vt 0.000000 0.000000
vt 1.000000 0.000000
vt 0.000000 1.000000
vt 1.000000 1.000000
s 0
usemtl 材质.004
f 10/10/3 11/11/3 9/9/3
f 10/10/3 12/12/3 11/11/3
o signallight.003
v -1.436511 4.282850 -12.753606
v -1.436511 4.032850 -12.753606
v -1.436516 4.282850 -12.503606
v -1.436516 4.032850 -12.503606
vn -1.0000 -0.0000 -0.0000
vt 0.000000 0.000000
vt 1.000000 0.000000
vt 0.000000 1.000000
vt 1.000000 1.000000
s 0
usemtl 材质.005
f 14/14/4 15/15/4 13/13/4
f 14/14/4 16/16/4 15/15/4
o signallight.004
v -1.436526 4.282850 -11.883380
v -1.436526 4.032850 -11.883380
v -1.436530 4.282850 -11.633380
v -1.436530 4.032850 -11.633380
vn -1.0000 -0.0000 -0.0000
vt 0.000000 0.000000
vt 1.000000 0.000000
vt 0.000000 1.000000
vt 1.000000 1.000000
s 0
usemtl 材质.006
f 18/18/5 19/19/5 17/17/5
f 18/18/5 20/20/5 19/19/5
o signallight.005
v -1.436519 4.282850 -12.283380
v -1.436519 4.032850 -12.283380
v -1.436524 4.282850 -12.033380
v -1.436524 4.032850 -12.033380
vn -1.0000 -0.0000 -0.0000
vt 0.000000 0.000000
vt 1.000000 0.000000
vt 0.000000 1.000000
vt 1.000000 1.000000
s 0
usemtl 材质.007
f 22/22/6 23/23/6 21/21/6
f 22/22/6 24/24/6 23/23/6
