# Blender 3.4.1
# www.blender.org
mtllib CarWheel.mtl
o lunzi
v -11.213331 0.331492 -5.844467
v -11.213298 0.331492 -7.844467
v -11.211410 0.311983 -5.844467
v -11.211376 0.311983 -7.844467
v -11.205719 0.293224 -5.844467
v -11.205686 0.293224 -7.844467
v -11.196479 0.275935 -5.844467
v -11.196445 0.275935 -7.844467
v -11.184042 0.260781 -5.844467
v -11.184009 0.260781 -7.844466
v -11.168888 0.248345 -5.844466
v -11.168855 0.248345 -7.844466
v -11.151600 0.239104 -5.844466
v -11.151567 0.239104 -7.844466
v -11.132840 0.233413 -5.844466
v -11.132807 0.233413 -7.844465
v -11.113332 0.231492 -5.844465
v -11.113297 0.231492 -7.844465
v -11.093822 0.233413 -5.844465
v -11.093789 0.233413 -7.844465
v -11.075063 0.239104 -5.844465
v -11.075029 0.239104 -7.844464
v -11.057775 0.248345 -5.844464
v -11.057741 0.248345 -7.844464
v -11.042621 0.260781 -5.844464
v -11.042587 0.260781 -7.844464
v -11.030185 0.275935 -5.844464
v -11.030150 0.275935 -7.844464
v -11.020944 0.293224 -5.844464
v -11.020910 0.293224 -7.844464
v -11.015253 0.311983 -5.844464
v -11.015220 0.311983 -7.844463
v -11.013331 0.331492 -5.844463
v -11.013298 0.331492 -7.844463
v -11.015253 0.351001 -5.844464
v -11.015220 0.351001 -7.844463
v -11.020944 0.369760 -5.844464
v -11.020910 0.369760 -7.844464
v -11.030185 0.387049 -5.844464
v -11.030150 0.387049 -7.844464
v -11.042621 0.402203 -5.844464
v -11.042587 0.402203 -7.844464
v -11.057775 0.414639 -5.844464
v -11.057741 0.414639 -7.844464
v -11.075063 0.423880 -5.844465
v -11.075029 0.423880 -7.844464
v -11.093822 0.429570 -5.844465
v -11.093789 0.429570 -7.844465
v -11.113332 0.431492 -5.844465
v -11.113297 0.431492 -7.844465
v -11.132840 0.429570 -5.844466
v -11.132807 0.429570 -7.844465
v -11.151600 0.423880 -5.844466
v -11.151567 0.423880 -7.844466
v -11.168888 0.414639 -5.844466
v -11.168855 0.414639 -7.844466
v -11.184042 0.402203 -5.844467
v -11.184009 0.402203 -7.844466
v -11.196479 0.387049 -5.844467
v -11.196445 0.387049 -7.844467
v -11.205719 0.369760 -5.844467
v -11.205686 0.369760 -7.844467
v -11.211410 0.351001 -5.844467
v -11.211376 0.351001 -7.844467
vn -0.9952 -0.0980 -0.0000
vn -0.9569 -0.2903 -0.0000
vn -0.8819 -0.4714 -0.0000
vn -0.7730 -0.6344 -0.0000
vn -0.6344 -0.7730 -0.0000
vn -0.4714 -0.8819 -0.0000
vn -0.2903 -0.9569 -0.0000
vn -0.0980 -0.9952 -0.0000
vn 0.0980 -0.9952 -0.0000
vn 0.2903 -0.9569 -0.0000
vn 0.4714 -0.8819 -0.0000
vn 0.6344 -0.7730 -0.0000
vn 0.7730 -0.6344 -0.0000
vn 0.8819 -0.4714 -0.0000
vn 0.9569 -0.2903 -0.0000
vn 0.9952 -0.0980 -0.0000
vn 0.9952 0.0980 -0.0000
vn 0.9569 0.2903 -0.0000
vn 0.8819 0.4714 -0.0000
vn 0.7730 0.6344 -0.0000
vn 0.6344 0.7730 -0.0000
vn 0.4714 0.8819 -0.0000
vn 0.2903 0.9569 -0.0000
vn 0.0980 0.9952 -0.0000
vn -0.0980 0.9952 -0.0000
vn -0.2903 0.9569 -0.0000
vn -0.4714 0.8819 -0.0000
vn -0.6344 0.7730 -0.0000
vn -0.7730 0.6344 -0.0000
vn -0.8819 0.4714 -0.0000
vn -0.0000 -0.0000 -1.0000
vn -0.9569 0.2903 -0.0000
vn -0.9952 0.0980 -0.0000
vn -0.0000 -0.0000 1.0000
vt 1.000000 0.500000
vt 0.000000 0.500000
vt 0.750000 0.490000
vt 1.000000 1.000000
vt 0.250000 0.490000
vt 0.000000 1.000000
vt 0.968750 0.500000
vt 0.796822 0.485388
vt 0.968750 1.000000
vt 0.296822 0.485388
vt 0.937500 0.500000
vt 0.841844 0.471731
vt 0.937500 1.000000
vt 0.341844 0.471731
vt 0.906250 0.500000
vt 0.883337 0.449553
vt 0.906250 1.000000
vt 0.383337 0.449553
vt 0.875000 0.500000
vt 0.919706 0.419706
vt 0.875000 1.000000
vt 0.419706 0.419706
vt 0.843750 0.500000
vt 0.949553 0.383337
vt 0.843750 1.000000
vt 0.449553 0.383337
vt 0.812500 0.500000
vt 0.971731 0.341844
vt 0.812500 1.000000
vt 0.471731 0.341844
vt 0.781250 0.500000
vt 0.985388 0.296822
vt 0.781250 1.000000
vt 0.485388 0.296822
vt 0.750000 0.500000
vt 0.990000 0.250000
vt 0.750000 1.000000
vt 0.490000 0.250000
vt 0.718750 0.500000
vt 0.985388 0.203178
vt 0.718750 1.000000
vt 0.485388 0.203178
vt 0.687500 0.500000
vt 0.971731 0.158156
vt 0.687500 1.000000
vt 0.471731 0.158156
vt 0.656250 0.500000
vt 0.949553 0.116663
vt 0.656250 1.000000
vt 0.449553 0.116663
vt 0.625000 0.500000
vt 0.919706 0.080294
vt 0.625000 1.000000
vt 0.419706 0.080294
vt 0.593750 0.500000
vt 0.883337 0.050447
vt 0.593750 1.000000
vt 0.383337 0.050447
vt 0.562500 0.500000
vt 0.841844 0.028269
vt 0.562500 1.000000
vt 0.341844 0.028269
vt 0.531250 0.500000
vt 0.796822 0.014612
vt 0.531250 1.000000
vt 0.296822 0.014612
vt 0.500000 0.500000
vt 0.750000 0.010000
vt 0.500000 1.000000
vt 0.250000 0.010000
vt 0.468750 0.500000
vt 0.703178 0.014612
vt 0.468750 1.000000
vt 0.203178 0.014612
vt 0.437500 0.500000
vt 0.658156 0.028269
vt 0.437500 1.000000
vt 0.158156 0.028269
vt 0.406250 0.500000
vt 0.616663 0.050447
vt 0.406250 1.000000
vt 0.116663 0.050447
vt 0.375000 0.500000
vt 0.580294 0.080294
vt 0.375000 1.000000
vt 0.080294 0.080294
vt 0.343750 0.500000
vt 0.550447 0.116663
vt 0.343750 1.000000
vt 0.050447 0.116663
vt 0.312500 0.500000
vt 0.528269 0.158156
vt 0.312500 1.000000
vt 0.028269 0.158156
vt 0.281250 0.500000
vt 0.514612 0.203178
vt 0.281250 1.000000
vt 0.014612 0.203178
vt 0.250000 0.500000
vt 0.510000 0.250000
vt 0.250000 1.000000
vt 0.010000 0.250000
vt 0.218750 0.500000
vt 0.514612 0.296822
vt 0.218750 1.000000
vt 0.014612 0.296822
vt 0.187500 0.500000
vt 0.528269 0.341844
vt 0.187500 1.000000
vt 0.028269 0.341844
vt 0.156250 0.500000
vt 0.550447 0.383337
vt 0.156250 1.000000
vt 0.050447 0.383337
vt 0.125000 0.500000
vt 0.580294 0.419706
vt 0.125000 1.000000
vt 0.080294 0.419706
vt 0.093750 0.500000
vt 0.616663 0.449553
vt 0.093750 1.000000
vt 0.116663 0.449553
vt 0.062500 0.500000
vt 0.658156 0.471731
vt 0.158156 0.471731
vt 0.062500 1.000000
vt 0.031250 0.500000
vt 0.703178 0.485388
vt 0.203178 0.485388
vt 0.031250 1.000000
s 0
f 2/4/1 3/7/1 1/1/1
f 4/9/2 5/11/2 3/7/2
f 6/13/3 7/15/3 5/11/3
f 8/17/4 9/19/4 7/15/4
f 10/21/5 11/23/5 9/19/5
f 12/25/6 13/27/6 11/23/6
f 14/29/7 15/31/7 13/27/7
f 16/33/8 17/35/8 15/31/8
f 18/37/9 19/39/9 17/35/9
f 20/41/10 21/43/10 19/39/10
f 22/45/11 23/47/11 21/43/11
f 24/49/12 25/51/12 23/47/12
f 26/53/13 27/55/13 25/51/13
f 28/57/14 29/59/14 27/55/14
f 30/61/15 31/63/15 29/59/15
f 32/65/16 33/67/16 31/63/16
f 34/69/17 35/71/17 33/67/17
f 36/73/18 37/75/18 35/71/18
f 38/77/19 39/79/19 37/75/19
f 40/81/20 41/83/20 39/79/20
f 42/85/21 43/87/21 41/83/21
f 44/89/22 45/91/22 43/87/22
f 46/93/23 47/95/23 45/91/23
f 48/97/24 49/99/24 47/95/24
f 50/101/25 51/103/25 49/99/25
f 52/105/26 53/107/26 51/103/26
f 54/109/27 55/111/27 53/107/27
f 56/113/28 57/115/28 55/111/28
f 58/117/29 59/119/29 57/115/29
f 60/121/30 61/123/30 59/119/30
f 38/78/31 22/46/31 6/14/31
f 62/126/32 63/127/32 61/123/32
f 64/130/33 1/2/33 63/127/33
f 31/64/34 47/96/34 63/128/34
f 2/4/1 4/9/1 3/7/1
f 4/9/2 6/13/2 5/11/2
f 6/13/3 8/17/3 7/15/3
f 8/17/4 10/21/4 9/19/4
f 10/21/5 12/25/5 11/23/5
f 12/25/6 14/29/6 13/27/6
f 14/29/7 16/33/7 15/31/7
f 16/33/8 18/37/8 17/35/8
f 18/37/9 20/41/9 19/39/9
f 20/41/10 22/45/10 21/43/10
f 22/45/11 24/49/11 23/47/11
f 24/49/12 26/53/12 25/51/12
f 26/53/13 28/57/13 27/55/13
f 28/57/14 30/61/14 29/59/14
f 30/61/15 32/65/15 31/63/15
f 32/65/16 34/69/16 33/67/16
f 34/69/17 36/73/17 35/71/17
f 36/73/18 38/77/18 37/75/18
f 38/77/19 40/81/19 39/79/19
f 40/81/20 42/85/20 41/83/20
f 42/85/21 44/89/21 43/87/21
f 44/89/22 46/93/22 45/91/22
f 46/93/23 48/97/23 47/95/23
f 48/97/24 50/101/24 49/99/24
f 50/101/25 52/105/25 51/103/25
f 52/105/26 54/109/26 53/107/26
f 54/109/27 56/113/27 55/111/27
f 56/113/28 58/117/28 57/115/28
f 58/117/29 60/121/29 59/119/29
f 60/121/30 62/126/30 61/123/30
f 6/14/31 4/10/31 2/5/31
f 2/5/31 64/129/31 62/125/31
f 62/125/31 60/122/31 58/118/31
f 58/118/31 56/114/31 54/110/31
f 54/110/31 52/106/31 50/102/31
f 50/102/31 48/98/31 46/94/31
f 46/94/31 44/90/31 42/86/31
f 42/86/31 40/82/31 38/78/31
f 38/78/31 36/74/31 34/70/31
f 34/70/31 32/66/31 30/62/31
f 30/62/31 28/58/31 26/54/31
f 26/54/31 24/50/31 22/46/31
f 22/46/31 20/42/31 18/38/31
f 18/38/31 16/34/31 14/30/31
f 14/30/31 12/26/31 10/22/31
f 10/22/31 8/18/31 6/14/31
f 6/14/31 2/5/31 62/125/31
f 62/125/31 58/118/31 54/110/31
f 54/110/31 50/102/31 46/94/31
f 46/94/31 42/86/31 38/78/31
f 38/78/31 34/70/31 30/62/31
f 30/62/31 26/54/31 22/46/31
f 22/46/31 18/38/31 14/30/31
f 14/30/31 10/22/31 6/14/31
f 6/14/31 62/125/31 54/110/31
f 54/110/31 46/94/31 38/78/31
f 38/78/31 30/62/31 22/46/31
f 22/46/31 14/30/31 6/14/31
f 6/14/31 54/110/31 38/78/31
f 62/126/32 64/130/32 63/127/32
f 64/130/33 2/6/33 1/2/33
f 63/128/34 1/3/34 3/8/34
f 3/8/34 5/12/34 7/16/34
f 7/16/34 9/20/34 11/24/34
f 11/24/34 13/28/34 15/32/34
f 15/32/34 17/36/34 19/40/34
f 19/40/34 21/44/34 23/48/34
f 23/48/34 25/52/34 27/56/34
f 27/56/34 29/60/34 31/64/34
f 31/64/34 33/68/34 35/72/34
f 35/72/34 37/76/34 39/80/34
f 39/80/34 41/84/34 43/88/34
f 43/88/34 45/92/34 47/96/34
f 47/96/34 49/100/34 51/104/34
f 51/104/34 53/108/34 55/112/34
f 55/112/34 57/116/34 59/120/34
f 59/120/34 61/124/34 63/128/34
f 63/128/34 3/8/34 7/16/34
f 7/16/34 11/24/34 15/32/34
f 15/32/34 19/40/34 23/48/34
f 23/48/34 27/56/34 31/64/34
f 31/64/34 35/72/34 39/80/34
f 39/80/34 43/88/34 47/96/34
f 47/96/34 51/104/34 55/112/34
f 55/112/34 59/120/34 63/128/34
f 63/128/34 7/16/34 15/32/34
f 15/32/34 23/48/34 31/64/34
f 31/64/34 39/80/34 47/96/34
f 47/96/34 55/112/34 63/128/34
f 63/128/34 15/32/34 31/64/34
o lunzi.001
v -14.024364 0.331492 -5.844515
v -14.024330 0.331492 -7.844515
v -14.022442 0.311983 -5.844515
v -14.022408 0.311983 -7.844514
v -14.016751 0.293224 -5.844514
v -14.016718 0.293224 -7.844514
v -14.007511 0.275935 -5.844514
v -14.007477 0.275935 -7.844514
v -13.995074 0.260781 -5.844514
v -13.995041 0.260781 -7.844514
v -13.979920 0.248345 -5.844514
v -13.979887 0.248345 -7.844514
v -13.962632 0.239104 -5.844514
v -13.962599 0.239104 -7.844513
v -13.943872 0.233413 -5.844513
v -13.943839 0.233413 -7.844513
v -13.924364 0.231492 -5.844513
v -13.924330 0.231492 -7.844513
v -13.904855 0.233413 -5.844513
v -13.904821 0.233413 -7.844512
v -13.886095 0.239104 -5.844512
v -13.886062 0.239104 -7.844512
v -13.868807 0.248345 -5.844512
v -13.868773 0.248345 -7.844512
v -13.853653 0.260781 -5.844512
v -13.853620 0.260781 -7.844512
v -13.841217 0.275935 -5.844512
v -13.841183 0.275935 -7.844512
v -13.831976 0.293224 -5.844512
v -13.831943 0.293224 -7.844512
v -13.826285 0.311983 -5.844512
v -13.826252 0.311983 -7.844511
v -13.824364 0.331492 -5.844511
v -13.824330 0.331492 -7.844511
v -13.826285 0.351001 -5.844512
v -13.826252 0.351001 -7.844511
v -13.831976 0.369760 -5.844512
v -13.831943 0.369760 -7.844512
v -13.841217 0.387049 -5.844512
v -13.841183 0.387049 -7.844512
v -13.853653 0.402203 -5.844512
v -13.853620 0.402203 -7.844512
v -13.868807 0.414639 -5.844512
v -13.868773 0.414639 -7.844512
v -13.886095 0.423880 -5.844512
v -13.886062 0.423880 -7.844512
v -13.904855 0.429570 -5.844513
v -13.904821 0.429570 -7.844512
v -13.924364 0.431492 -5.844513
v -13.924330 0.431492 -7.844513
v -13.943872 0.429570 -5.844513
v -13.943839 0.429570 -7.844513
v -13.962632 0.423880 -5.844514
v -13.962599 0.423880 -7.844513
v -13.979920 0.414639 -5.844514
v -13.979887 0.414639 -7.844514
v -13.995074 0.402203 -5.844514
v -13.995041 0.402203 -7.844514
v -14.007511 0.387049 -5.844514
v -14.007477 0.387049 -7.844514
v -14.016751 0.369760 -5.844514
v -14.016718 0.369760 -7.844514
v -14.022442 0.351001 -5.844515
v -14.022408 0.351001 -7.844514
vn -0.9952 -0.0980 -0.0000
vn -0.9569 -0.2903 -0.0000
vn -0.8819 -0.4714 -0.0000
vn -0.7730 -0.6344 -0.0000
vn -0.6344 -0.7730 -0.0000
vn -0.4714 -0.8819 -0.0000
vn -0.2903 -0.9569 -0.0000
vn -0.0980 -0.9952 -0.0000
vn 0.0980 -0.9952 -0.0000
vn 0.2903 -0.9569 -0.0000
vn 0.4714 -0.8819 -0.0000
vn 0.6344 -0.7730 -0.0000
vn 0.7730 -0.6344 -0.0000
vn 0.8819 -0.4714 -0.0000
vn 0.9569 -0.2903 -0.0000
vn 0.9952 -0.0980 -0.0000
vn 0.9952 0.0980 -0.0000
vn 0.9569 0.2903 -0.0000
vn 0.8819 0.4714 -0.0000
vn 0.7730 0.6344 -0.0000
vn 0.6344 0.7730 -0.0000
vn 0.4714 0.8819 -0.0000
vn 0.2903 0.9569 -0.0000
vn 0.0980 0.9952 -0.0000
vn -0.0980 0.9952 -0.0000
vn -0.2903 0.9569 -0.0000
vn -0.4714 0.8819 -0.0000
vn -0.6344 0.7730 -0.0000
vn -0.7730 0.6344 -0.0000
vn -0.8819 0.4714 -0.0000
vn -0.0000 -0.0000 -1.0000
vn -0.9569 0.2903 -0.0000
vn -0.9952 0.0980 -0.0000
vn -0.0000 -0.0000 1.0000
vt 1.000000 0.500000
vt 0.000000 0.500000
vt 0.750000 0.490000
vt 1.000000 1.000000
vt 0.250000 0.490000
vt 0.000000 1.000000
vt 0.968750 0.500000
vt 0.796822 0.485388
vt 0.968750 1.000000
vt 0.296822 0.485388
vt 0.937500 0.500000
vt 0.841844 0.471731
vt 0.937500 1.000000
vt 0.341844 0.471731
vt 0.906250 0.500000
vt 0.883337 0.449553
vt 0.906250 1.000000
vt 0.383337 0.449553
vt 0.875000 0.500000
vt 0.919706 0.419706
vt 0.875000 1.000000
vt 0.419706 0.419706
vt 0.843750 0.500000
vt 0.949553 0.383337
vt 0.843750 1.000000
vt 0.449553 0.383337
vt 0.812500 0.500000
vt 0.971731 0.341844
vt 0.812500 1.000000
vt 0.471731 0.341844
vt 0.781250 0.500000
vt 0.985388 0.296822
vt 0.781250 1.000000
vt 0.485388 0.296822
vt 0.750000 0.500000
vt 0.990000 0.250000
vt 0.750000 1.000000
vt 0.490000 0.250000
vt 0.718750 0.500000
vt 0.985388 0.203178
vt 0.718750 1.000000
vt 0.485388 0.203178
vt 0.687500 0.500000
vt 0.971731 0.158156
vt 0.687500 1.000000
vt 0.471731 0.158156
vt 0.656250 0.500000
vt 0.949553 0.116663
vt 0.656250 1.000000
vt 0.449553 0.116663
vt 0.625000 0.500000
vt 0.919706 0.080294
vt 0.625000 1.000000
vt 0.419706 0.080294
vt 0.593750 0.500000
vt 0.883337 0.050447
vt 0.593750 1.000000
vt 0.383337 0.050447
vt 0.562500 0.500000
vt 0.841844 0.028269
vt 0.562500 1.000000
vt 0.341844 0.028269
vt 0.531250 0.500000
vt 0.796822 0.014612
vt 0.531250 1.000000
vt 0.296822 0.014612
vt 0.500000 0.500000
vt 0.750000 0.010000
vt 0.500000 1.000000
vt 0.250000 0.010000
vt 0.468750 0.500000
vt 0.703178 0.014612
vt 0.468750 1.000000
vt 0.203178 0.014612
vt 0.437500 0.500000
vt 0.658156 0.028269
vt 0.437500 1.000000
vt 0.158156 0.028269
vt 0.406250 0.500000
vt 0.616663 0.050447
vt 0.406250 1.000000
vt 0.116663 0.050447
vt 0.375000 0.500000
vt 0.580294 0.080294
vt 0.375000 1.000000
vt 0.080294 0.080294
vt 0.343750 0.500000
vt 0.550447 0.116663
vt 0.343750 1.000000
vt 0.050447 0.116663
vt 0.312500 0.500000
vt 0.528269 0.158156
vt 0.312500 1.000000
vt 0.028269 0.158156
vt 0.281250 0.500000
vt 0.514612 0.203178
vt 0.281250 1.000000
vt 0.014612 0.203178
vt 0.250000 0.500000
vt 0.510000 0.250000
vt 0.250000 1.000000
vt 0.010000 0.250000
vt 0.218750 0.500000
vt 0.514612 0.296822
vt 0.218750 1.000000
vt 0.014612 0.296822
vt 0.187500 0.500000
vt 0.528269 0.341844
vt 0.187500 1.000000
vt 0.028269 0.341844
vt 0.156250 0.500000
vt 0.550447 0.383337
vt 0.156250 1.000000
vt 0.050447 0.383337
vt 0.125000 0.500000
vt 0.580294 0.419706
vt 0.125000 1.000000
vt 0.080294 0.419706
vt 0.093750 0.500000
vt 0.616663 0.449553
vt 0.093750 1.000000
vt 0.116663 0.449553
vt 0.062500 0.500000
vt 0.658156 0.471731
vt 0.158156 0.471731
vt 0.062500 1.000000
vt 0.031250 0.500000
vt 0.703178 0.485388
vt 0.203178 0.485388
vt 0.031250 1.000000
s 0
f 66/134/35 67/137/35 65/131/35
f 68/139/36 69/141/36 67/137/36
f 70/143/37 71/145/37 69/141/37
f 72/147/38 73/149/38 71/145/38
f 74/151/39 75/153/39 73/149/39
f 76/155/40 77/157/40 75/153/40
f 78/159/41 79/161/41 77/157/41
f 80/163/42 81/165/42 79/161/42
f 82/167/43 83/169/43 81/165/43
f 84/171/44 85/173/44 83/169/44
f 86/175/45 87/177/45 85/173/45
f 88/179/46 89/181/46 87/177/46
f 90/183/47 91/185/47 89/181/47
f 92/187/48 93/189/48 91/185/48
f 94/191/49 95/193/49 93/189/49
f 96/195/50 97/197/50 95/193/50
f 98/199/51 99/201/51 97/197/51
f 100/203/52 101/205/52 99/201/52
f 102/207/53 103/209/53 101/205/53
f 104/211/54 105/213/54 103/209/54
f 106/215/55 107/217/55 105/213/55
f 108/219/56 109/221/56 107/217/56
f 110/223/57 111/225/57 109/221/57
f 112/227/58 113/229/58 111/225/58
f 114/231/59 115/233/59 113/229/59
f 116/235/60 117/237/60 115/233/60
f 118/239/61 119/241/61 117/237/61
f 120/243/62 121/245/62 119/241/62
f 122/247/63 123/249/63 121/245/63
f 124/251/64 125/253/64 123/249/64
f 102/208/65 86/176/65 70/144/65
f 126/256/66 127/257/66 125/253/66
f 128/260/67 65/132/67 127/257/67
f 95/194/68 111/226/68 127/258/68
f 66/134/35 68/139/35 67/137/35
f 68/139/36 70/143/36 69/141/36
f 70/143/37 72/147/37 71/145/37
f 72/147/38 74/151/38 73/149/38
f 74/151/39 76/155/39 75/153/39
f 76/155/40 78/159/40 77/157/40
f 78/159/41 80/163/41 79/161/41
f 80/163/42 82/167/42 81/165/42
f 82/167/43 84/171/43 83/169/43
f 84/171/44 86/175/44 85/173/44
f 86/175/45 88/179/45 87/177/45
f 88/179/46 90/183/46 89/181/46
f 90/183/47 92/187/47 91/185/47
f 92/187/48 94/191/48 93/189/48
f 94/191/49 96/195/49 95/193/49
f 96/195/50 98/199/50 97/197/50
f 98/199/51 100/203/51 99/201/51
f 100/203/52 102/207/52 101/205/52
f 102/207/53 104/211/53 103/209/53
f 104/211/54 106/215/54 105/213/54
f 106/215/55 108/219/55 107/217/55
f 108/219/56 110/223/56 109/221/56
f 110/223/57 112/227/57 111/225/57
f 112/227/58 114/231/58 113/229/58
f 114/231/59 116/235/59 115/233/59
f 116/235/60 118/239/60 117/237/60
f 118/239/61 120/243/61 119/241/61
f 120/243/62 122/247/62 121/245/62
f 122/247/63 124/251/63 123/249/63
f 124/251/64 126/256/64 125/253/64
f 70/144/65 68/140/65 66/135/65
f 66/135/65 128/259/65 126/255/65
f 126/255/65 124/252/65 122/248/65
f 122/248/65 120/244/65 118/240/65
f 118/240/65 116/236/65 114/232/65
f 114/232/65 112/228/65 110/224/65
f 110/224/65 108/220/65 106/216/65
f 106/216/65 104/212/65 102/208/65
f 102/208/65 100/204/65 98/200/65
f 98/200/65 96/196/65 94/192/65
f 94/192/65 92/188/65 90/184/65
f 90/184/65 88/180/65 86/176/65
f 86/176/65 84/172/65 82/168/65
f 82/168/65 80/164/65 78/160/65
f 78/160/65 76/156/65 74/152/65
f 74/152/65 72/148/65 70/144/65
f 70/144/65 66/135/65 126/255/65
f 126/255/65 122/248/65 118/240/65
f 118/240/65 114/232/65 110/224/65
f 110/224/65 106/216/65 102/208/65
f 102/208/65 98/200/65 94/192/65
f 94/192/65 90/184/65 86/176/65
f 86/176/65 82/168/65 78/160/65
f 78/160/65 74/152/65 70/144/65
f 70/144/65 126/255/65 118/240/65
f 118/240/65 110/224/65 102/208/65
f 102/208/65 94/192/65 86/176/65
f 86/176/65 78/160/65 70/144/65
f 70/144/65 118/240/65 102/208/65
f 126/256/66 128/260/66 127/257/66
f 128/260/67 66/136/67 65/132/67
f 127/258/68 65/133/68 67/138/68
f 67/138/68 69/142/68 71/146/68
f 71/146/68 73/150/68 75/154/68
f 75/154/68 77/158/68 79/162/68
f 79/162/68 81/166/68 83/170/68
f 83/170/68 85/174/68 87/178/68
f 87/178/68 89/182/68 91/186/68
f 91/186/68 93/190/68 95/194/68
f 95/194/68 97/198/68 99/202/68
f 99/202/68 101/206/68 103/210/68
f 103/210/68 105/214/68 107/218/68
f 107/218/68 109/222/68 111/226/68
f 111/226/68 113/230/68 115/234/68
f 115/234/68 117/238/68 119/242/68
f 119/242/68 121/246/68 123/250/68
f 123/250/68 125/254/68 127/258/68
f 127/258/68 67/138/68 71/146/68
f 71/146/68 75/154/68 79/162/68
f 79/162/68 83/170/68 87/178/68
f 87/178/68 91/186/68 95/194/68
f 95/194/68 99/202/68 103/210/68
f 103/210/68 107/218/68 111/226/68
f 111/226/68 115/234/68 119/242/68
f 119/242/68 123/250/68 127/258/68
f 127/258/68 71/146/68 79/162/68
f 79/162/68 87/178/68 95/194/68
f 95/194/68 103/210/68 111/226/68
f 111/226/68 119/242/68 127/258/68
f 127/258/68 79/162/68 95/194/68
